<svg height="28" viewBox="0 0 128 128" width="28" xmlns="http://www.w3.org/2000/svg"><g><path d="m35.326 77.205h8.716a1.75 1.75 0 0 0 0-3.5h-8.716a1.75 1.75 0 0 0 0 3.5z"/><path d="m50.78 75.455a1.751 1.751 0 0 0 1.75 1.75h40.144a1.75 1.75 0 0 0 0-3.5h-40.144a1.75 1.75 0 0 0 -1.75 1.75z"/><path d="m35.326 88.585h8.716a1.75 1.75 0 1 0 0-3.5h-8.716a1.75 1.75 0 0 0 0 3.5z"/><path d="m92.674 85.085h-40.144a1.75 1.75 0 0 0 0 3.5h40.144a1.75 1.75 0 0 0 0-3.5z"/><path d="m35.326 99.966h8.716a1.75 1.75 0 0 0 0-3.5h-8.716a1.75 1.75 0 0 0 0 3.5z"/><path d="m92.674 96.466h-40.144a1.75 1.75 0 1 0 0 3.5h40.144a1.75 1.75 0 0 0 0-3.5z"/><path d="m57.793 46.715-2.193 2.708a12.462 12.462 0 0 0 7.09 3.255v2.038h2.77v-1.947c4.412-.3 6.938-2.86 6.938-6.359 0-3.712-2.77-5.142-6.938-6.085v-5.725a9.951 9.951 0 0 1 4.321 2.282l2.068-2.8a11.308 11.308 0 0 0 -6.389-2.83v-1.88h-2.768v1.856c-3.744.456-6.269 2.981-6.269 6.267 0 3.591 2.525 4.93 6.269 5.9v5.933a10.4 10.4 0 0 1 -4.899-2.613zm7.667-2.615c2.16.639 3.134 1.278 3.134 2.677 0 1.339-1.065 2.5-3.134 2.739zm-5.2-6.937a2.873 2.873 0 0 1 2.435-2.617v5.054c-1.647-.583-2.438-1.222-2.438-2.439z"/><path d="m64 64.541a22.5 22.5 0 1 0 -22.5-22.5 22.522 22.522 0 0 0 22.5 22.5zm0-41.494a19 19 0 1 1 -19 19 19.018 19.018 0 0 1 19-19z"/><path d="m106.455 4.557h-84.91a1.75 1.75 0 0 0 -1.75 1.75v115.386a1.75 1.75 0 0 0 2.988 1.238l7.253-7.254 7.254 7.254a1.751 1.751 0 0 0 2.475 0l7.253-7.254 7.254 7.254a1.751 1.751 0 0 0 2.475 0l7.253-7.254 7.254 7.254a1.751 1.751 0 0 0 2.475 0l7.253-7.253 7.253 7.253a1.751 1.751 0 0 0 2.475 0l7.254-7.254 7.253 7.254a1.75 1.75 0 0 0 2.988-1.238v-115.386a1.75 1.75 0 0 0 -1.75-1.75zm-1.75 112.911-5.5-5.5a1.75 1.75 0 0 0 -2.474 0l-7.254 7.254-7.254-7.254a1.75 1.75 0 0 0 -2.474 0l-7.254 7.254-7.254-7.254a1.75 1.75 0 0 0 -2.474 0l-7.254 7.254-7.254-7.254a1.75 1.75 0 0 0 -2.474 0l-7.254 7.254-7.254-7.254a1.75 1.75 0 0 0 -2.474 0l-5.5 5.5v-109.411h81.41z"/></g></svg>